<mxfile host="65bd71144e">
    <diagram id="e7UsKWrZ0zvO6-tyAIaY" name="Page-1">
        <mxGraphModel dx="666" dy="355" grid="1" gridSize="10" guides="1" tooltips="1" connect="1" arrows="1" fold="1" page="1" pageScale="1" pageWidth="850" pageHeight="1100" math="0" shadow="0">
            <root>
                <mxCell id="0"/>
                <mxCell id="1" parent="0"/>
                <mxCell id="6" value="User" style="swimlane;whiteSpace=wrap;html=1;" parent="1" vertex="1">
                    <mxGeometry x="80" y="120" width="280" height="1840" as="geometry"/>
                </mxCell>
                <mxCell id="8" value="" style="ellipse;html=1;shape=startState;fillColor=#000000;strokeColor=#ff0000;" parent="6" vertex="1">
                    <mxGeometry x="125" y="60" width="30" height="30" as="geometry"/>
                </mxCell>
                <mxCell id="9" value="" style="edgeStyle=orthogonalEdgeStyle;html=1;verticalAlign=bottom;endArrow=open;endSize=8;strokeColor=#ff0000;" parent="6" source="8" edge="1">
                    <mxGeometry relative="1" as="geometry">
                        <mxPoint x="140" y="130" as="targetPoint"/>
                    </mxGeometry>
                </mxCell>
                <mxCell id="10" value="Membuka halaman Contract" style="rounded=1;whiteSpace=wrap;html=1;" parent="6" vertex="1">
                    <mxGeometry x="80" y="130" width="120" height="60" as="geometry"/>
                </mxCell>
                <mxCell id="16" value="Pilih tombol tambah pada halaman contract" style="rounded=1;whiteSpace=wrap;html=1;" parent="6" vertex="1">
                    <mxGeometry x="80" y="230" width="120" height="60" as="geometry"/>
                </mxCell>
                <mxCell id="34" value="" style="edgeStyle=none;html=1;" edge="1" parent="6" source="20" target="33">
                    <mxGeometry relative="1" as="geometry"/>
                </mxCell>
                <mxCell id="20" value="Masukkan no. vendor" style="rounded=1;whiteSpace=wrap;html=1;" parent="6" vertex="1">
                    <mxGeometry x="80" y="330" width="120" height="60" as="geometry"/>
                </mxCell>
                <mxCell id="36" value="" style="edgeStyle=none;html=1;" edge="1" parent="6" source="33" target="35">
                    <mxGeometry relative="1" as="geometry"/>
                </mxCell>
                <mxCell id="33" value="Masukkan nama vendor" style="rounded=1;whiteSpace=wrap;html=1;" vertex="1" parent="6">
                    <mxGeometry x="80" y="430" width="120" height="60" as="geometry"/>
                </mxCell>
                <mxCell id="38" value="" style="edgeStyle=none;html=1;" edge="1" parent="6" source="35" target="37">
                    <mxGeometry relative="1" as="geometry"/>
                </mxCell>
                <mxCell id="35" value="Masukkan no. contract" style="rounded=1;whiteSpace=wrap;html=1;" vertex="1" parent="6">
                    <mxGeometry x="80" y="530" width="120" height="60" as="geometry"/>
                </mxCell>
                <mxCell id="40" value="" style="edgeStyle=none;html=1;" edge="1" parent="6" source="37" target="39">
                    <mxGeometry relative="1" as="geometry"/>
                </mxCell>
                <mxCell id="37" value="Masukkan nama contract" style="rounded=1;whiteSpace=wrap;html=1;" vertex="1" parent="6">
                    <mxGeometry x="80" y="630" width="120" height="60" as="geometry"/>
                </mxCell>
                <mxCell id="42" value="" style="edgeStyle=none;html=1;" edge="1" parent="6" source="39" target="41">
                    <mxGeometry relative="1" as="geometry"/>
                </mxCell>
                <mxCell id="39" value="Pilih contract type" style="rounded=1;whiteSpace=wrap;html=1;" vertex="1" parent="6">
                    <mxGeometry x="80" y="730" width="120" height="60" as="geometry"/>
                </mxCell>
                <mxCell id="44" value="" style="edgeStyle=none;html=1;" edge="1" parent="6" source="41" target="43">
                    <mxGeometry relative="1" as="geometry"/>
                </mxCell>
                <mxCell id="41" value="Pilih contract date" style="rounded=1;whiteSpace=wrap;html=1;" vertex="1" parent="6">
                    <mxGeometry x="80" y="830" width="120" height="60" as="geometry"/>
                </mxCell>
                <mxCell id="43" value="Masukkan contract price" style="rounded=1;whiteSpace=wrap;html=1;" vertex="1" parent="6">
                    <mxGeometry x="80" y="930" width="120" height="60" as="geometry"/>
                </mxCell>
                <mxCell id="7" value="Sistem" style="swimlane;whiteSpace=wrap;html=1;" parent="1" vertex="1">
                    <mxGeometry x="360" y="120" width="320" height="1840" as="geometry"/>
                </mxCell>
                <mxCell id="14" value="Menampilkan halaman Contract" style="rounded=1;whiteSpace=wrap;html=1;" parent="7" vertex="1">
                    <mxGeometry x="80" y="130" width="120" height="60" as="geometry"/>
                </mxCell>
                <mxCell id="18" value="Menampilkan halaman tambah data" style="rounded=1;whiteSpace=wrap;html=1;" parent="7" vertex="1">
                    <mxGeometry x="80" y="230" width="120" height="60" as="geometry"/>
                </mxCell>
                <mxCell id="74" style="edgeStyle=none;html=1;entryX=0.5;entryY=0;entryDx=0;entryDy=0;" edge="1" parent="7" source="24" target="73">
                    <mxGeometry relative="1" as="geometry">
                        <mxPoint x="140" y="1510" as="targetPoint"/>
                        <Array as="points">
                            <mxPoint x="230" y="1260"/>
                            <mxPoint x="230" y="1480"/>
                            <mxPoint x="140" y="1480"/>
                        </Array>
                    </mxGeometry>
                </mxCell>
                <mxCell id="24" value="Validasi data" style="rhombus;whiteSpace=wrap;html=1;rounded=1;" parent="7" vertex="1">
                    <mxGeometry x="77.5" y="1230" width="125" height="60" as="geometry"/>
                </mxCell>
                <mxCell id="79" value="" style="edgeStyle=none;html=1;" edge="1" parent="7" source="73" target="78">
                    <mxGeometry relative="1" as="geometry"/>
                </mxCell>
                <mxCell id="81" style="edgeStyle=none;html=1;entryX=1;entryY=0.5;entryDx=0;entryDy=0;" edge="1" parent="7" source="73" target="18">
                    <mxGeometry relative="1" as="geometry">
                        <Array as="points">
                            <mxPoint x="270" y="1559"/>
                            <mxPoint x="270" y="260"/>
                        </Array>
                    </mxGeometry>
                </mxCell>
                <mxCell id="73" value="Validasi data" style="rhombus;whiteSpace=wrap;html=1;rounded=1;" vertex="1" parent="7">
                    <mxGeometry x="78" y="1529" width="125" height="60" as="geometry"/>
                </mxCell>
                <mxCell id="85" value="" style="edgeStyle=none;html=1;" edge="1" parent="7" source="78" target="84">
                    <mxGeometry relative="1" as="geometry"/>
                </mxCell>
                <mxCell id="78" value="Menyimpan data contract" style="rounded=1;whiteSpace=wrap;html=1;" vertex="1" parent="7">
                    <mxGeometry x="80.5" y="1630" width="120" height="60" as="geometry"/>
                </mxCell>
                <mxCell id="82" value="Tidak" style="text;html=1;align=center;verticalAlign=middle;resizable=0;points=[];autosize=1;strokeColor=none;fillColor=none;" vertex="1" parent="7">
                    <mxGeometry x="220" y="1534" width="50" height="30" as="geometry"/>
                </mxCell>
                <mxCell id="84" value="" style="ellipse;html=1;shape=endState;fillColor=#000000;strokeColor=#ff0000;" vertex="1" parent="7">
                    <mxGeometry x="125.5" y="1750" width="30" height="30" as="geometry"/>
                </mxCell>
                <mxCell id="15" value="" style="edgeStyle=none;html=1;" parent="1" source="10" target="14" edge="1">
                    <mxGeometry relative="1" as="geometry"/>
                </mxCell>
                <mxCell id="17" value="" style="edgeStyle=none;html=1;exitX=0.5;exitY=1;exitDx=0;exitDy=0;entryX=0.5;entryY=0;entryDx=0;entryDy=0;" parent="1" source="14" target="16" edge="1">
                    <mxGeometry relative="1" as="geometry">
                        <Array as="points">
                            <mxPoint x="500" y="330"/>
                            <mxPoint x="220" y="330"/>
                        </Array>
                    </mxGeometry>
                </mxCell>
                <mxCell id="19" value="" style="edgeStyle=none;html=1;" parent="1" source="16" target="18" edge="1">
                    <mxGeometry relative="1" as="geometry"/>
                </mxCell>
                <mxCell id="21" value="" style="edgeStyle=none;html=1;exitX=0.5;exitY=1;exitDx=0;exitDy=0;" parent="1" source="18" target="20" edge="1">
                    <mxGeometry relative="1" as="geometry">
                        <Array as="points">
                            <mxPoint x="500" y="430"/>
                            <mxPoint x="220" y="430"/>
                        </Array>
                    </mxGeometry>
                </mxCell>
                <mxCell id="48" value="" style="edgeStyle=none;html=1;" edge="1" parent="1" source="45" target="47">
                    <mxGeometry relative="1" as="geometry"/>
                </mxCell>
                <mxCell id="45" value="Unggah&amp;nbsp; contract file" style="rounded=1;whiteSpace=wrap;html=1;" vertex="1" parent="1">
                    <mxGeometry x="160" y="1150" width="120" height="60" as="geometry"/>
                </mxCell>
                <mxCell id="46" value="" style="edgeStyle=none;html=1;" edge="1" parent="1" source="43" target="45">
                    <mxGeometry relative="1" as="geometry"/>
                </mxCell>
                <mxCell id="50" value="" style="edgeStyle=none;html=1;" edge="1" parent="1" source="47" target="49">
                    <mxGeometry relative="1" as="geometry"/>
                </mxCell>
                <mxCell id="47" value="Pilih contract status" style="rounded=1;whiteSpace=wrap;html=1;" vertex="1" parent="1">
                    <mxGeometry x="160" y="1250" width="120" height="60" as="geometry"/>
                </mxCell>
                <mxCell id="49" value="Pilih KOM" style="rounded=1;whiteSpace=wrap;html=1;" vertex="1" parent="1">
                    <mxGeometry x="160" y="1350" width="120" height="60" as="geometry"/>
                </mxCell>
                <mxCell id="54" value="" style="edgeStyle=none;html=1;" edge="1" parent="1" source="51" target="53">
                    <mxGeometry relative="1" as="geometry"/>
                </mxCell>
                <mxCell id="51" value="Pilih kontrak mulai" style="rounded=1;whiteSpace=wrap;html=1;" vertex="1" parent="1">
                    <mxGeometry x="160" y="1450" width="120" height="60" as="geometry"/>
                </mxCell>
                <mxCell id="56" value="" style="edgeStyle=none;html=1;" edge="1" parent="1" source="53" target="55">
                    <mxGeometry relative="1" as="geometry"/>
                </mxCell>
                <mxCell id="53" value="Pilih kontrak berakhir" style="rounded=1;whiteSpace=wrap;html=1;" vertex="1" parent="1">
                    <mxGeometry x="160" y="1550" width="120" height="60" as="geometry"/>
                </mxCell>
                <mxCell id="55" value="Unggah notulensi KOM" style="rounded=1;whiteSpace=wrap;html=1;" vertex="1" parent="1">
                    <mxGeometry x="160" y="1650" width="120" height="60" as="geometry"/>
                </mxCell>
                <mxCell id="67" style="edgeStyle=none;html=1;entryX=0.035;entryY=0.505;entryDx=0;entryDy=0;entryPerimeter=0;" edge="1" parent="1" source="49" target="24">
                    <mxGeometry relative="1" as="geometry"/>
                </mxCell>
                <mxCell id="68" style="edgeStyle=none;html=1;entryX=1;entryY=0.5;entryDx=0;entryDy=0;" edge="1" parent="1" source="24" target="51">
                    <mxGeometry relative="1" as="geometry">
                        <Array as="points">
                            <mxPoint x="500" y="1480"/>
                        </Array>
                    </mxGeometry>
                </mxCell>
                <mxCell id="75" value="Ya" style="text;html=1;align=center;verticalAlign=middle;resizable=0;points=[];autosize=1;strokeColor=none;fillColor=none;" vertex="1" parent="1">
                    <mxGeometry x="410" y="1456" width="40" height="30" as="geometry"/>
                </mxCell>
                <mxCell id="76" value="Tidak" style="text;html=1;align=center;verticalAlign=middle;resizable=0;points=[];autosize=1;strokeColor=none;fillColor=none;" vertex="1" parent="1">
                    <mxGeometry x="525" y="1575" width="50" height="30" as="geometry"/>
                </mxCell>
                <mxCell id="77" style="edgeStyle=none;html=1;entryX=0.045;entryY=0.508;entryDx=0;entryDy=0;entryPerimeter=0;" edge="1" parent="1" source="55" target="73">
                    <mxGeometry relative="1" as="geometry"/>
                </mxCell>
                <mxCell id="80" value="Ya" style="text;html=1;align=center;verticalAlign=middle;resizable=0;points=[];autosize=1;strokeColor=none;fillColor=none;" vertex="1" parent="1">
                    <mxGeometry x="490" y="1708" width="40" height="30" as="geometry"/>
                </mxCell>
            </root>
        </mxGraphModel>
    </diagram>
</mxfile>